<svg xmlns="http://www.w3.org/2000/svg" viewBox="0 0 512 512">
  <defs>
    <linearGradient id="bg" x1="0" y1="0" x2="1" y2="1">
      <stop offset="0%" stop-color="#2563eb"/>
      <stop offset="100%" stop-color="#1e40af"/>
    </linearGradient>
  </defs>
  <!-- Background -->
  <rect width="512" height="512" rx="96" fill="url(#bg)"/>
  <!-- Invoice/document shape -->
  <rect x="140" y="80" width="232" height="300" rx="20" fill="white" opacity="0.15"/>
  <rect x="156" y="96" width="232" height="300" rx="20" fill="white" opacity="0.25"/>
  <rect x="172" y="112" width="232" height="300" rx="20" fill="white" opacity="0.95"/>
  <!-- Lines on document -->
  <rect x="204" y="156" width="136" height="8" rx="4" fill="#2563eb" opacity="0.3"/>
  <rect x="204" y="180" width="100" height="8" rx="4" fill="#2563eb" opacity="0.2"/>
  <!-- Checkmarks for assigned items -->
  <circle cx="228" cy="224" r="12" fill="#22c55e" opacity="0.9"/>
  <path d="M221 224 l5 5 l9-9" stroke="white" stroke-width="3" fill="none" stroke-linecap="round" stroke-linejoin="round"/>
  <rect x="250" y="218" width="120" height="8" rx="4" fill="#cbd5e1"/>

  <circle cx="228" cy="260" r="12" fill="#22c55e" opacity="0.9"/>
  <path d="M221 260 l5 5 l9-9" stroke="white" stroke-width="3" fill="none" stroke-linecap="round" stroke-linejoin="round"/>
  <rect x="250" y="254" width="96" height="8" rx="4" fill="#cbd5e1"/>

  <circle cx="228" cy="296" r="12" fill="#f97316" opacity="0.9"/>
  <rect x="224" y="292" width="8" height="8" rx="2" fill="white"/>
  <rect x="250" y="290" width="108" height="8" rx="4" fill="#cbd5e1"/>

  <circle cx="228" cy="332" r="12" fill="#f97316" opacity="0.9"/>
  <rect x="224" y="328" width="8" height="8" rx="2" fill="white"/>
  <rect x="250" y="326" width="80" height="8" rx="4" fill="#cbd5e1"/>

  <!-- Hard hat / construction icon -->
  <g transform="translate(256, 430)">
    <path d="M-60 10 C-60-30 -40-55 0-55 C40-55 60-30 60 10" fill="#fbbf24" stroke="#f59e0b" stroke-width="4"/>
    <rect x="-68" y="6" width="136" height="16" rx="8" fill="#f59e0b"/>
    <rect x="-6" y="-55" width="12" height="20" rx="4" fill="#f59e0b"/>
  </g>
</svg>
